<?xml version="1.0"?><svg width="351.665" height="330.719" xmlns="http://www.w3.org/2000/svg">
 <title>biohazard</title>

 <g>
  <title>Layer 1</title>
  <g id="g5">
   <path fill="#ff0000" id="path7" d="m169.873993,148.947006l0,15.311996c-14.145996,2.938004 -20.875,15.625 -16.811996,29.688004l-13,7.625c-55.687996,-75.083008 -163.854996,-14.417007 -132.021996,71.417007c-29.667001,-68.667007 18.500001,-132.667007 74.583001,-139.417007c-21.916,-58.584007 13.417,-126.418006 81.063004,-133.687006c-87.312004,15.603001 -86.479004,138.435999 6.187988,149.062006z"/>
   <path fill="#ff0000" id="path9" d="m144.052994,209.440994l13.261002,-7.655991c9.617004,10.78299 23.970001,10.265991 34.115997,-0.283005l13.104004,7.445007c-37.181,85.768997 69.44101,149.111008 127.859009,78.624985c-44.634003,60.024994 -124.143005,50.312012 -158.029999,5.117004c-39.777008,48.27301 -116.189007,51.591003 -156.308006,-3.356995c57.167999,67.812988 163.129005,5.674988 125.997993,-79.891006z"/>
   <path fill="#ff0000" id="path11" d="m209.759995,201.173004l-13.261993,-7.656006c4.528992,-13.720001 -3.093994,-25.890991 -17.302994,-29.403l-0.104004,-15.070999c92.868988,-10.686005 94.412994,-134.693999 4.162003,-150.042999c74.30098,8.642 105.64299,82.355003 83.445999,134.300003c61.694,10.311996 102.77298,74.826996 75.246002,137.046005c30.143982,-83.416016 -76.649017,-144.111008 -132.185013,-69.173004z"/>
   <path fill="#ff0000" id="path13" d="m119.249001,111.885002l16.749992,16.937996c22.938004,-17.5 57.688004,-13.75 77.188004,-0.438004l15.875,-16.499992c-30.438004,-24.729004 -76.772003,-24.729004 -109.812996,0z"/>
   <path fill="#ff0000" id="path15" d="m267.161011,176.751999l-23.043015,6.037994c3.686996,28.614014 -16.935989,56.833008 -38.214996,67.065002l6.352005,21.998001c36.634003,-13.996002 59.800995,-54.121002 54.906006,-95.100998z"/>
   <path fill="#ff0000" id="path17" d="m137.179993,271.602997l6.293015,-22.975998c-26.624008,-11.112991 -40.751007,-43.082993 -38.973007,-66.626999l-22.226997,-5.498001c-6.195999,38.723999 16.971001,78.849991 54.90699,95.100998z"/>
  </g>
 </g>
</svg>