<?xml version="1.0"?><svg width="793.701" height="1122.52" xmlns="http://www.w3.org/2000/svg">
 <title>eagle landing red</title>

 <g>
  <title>Layer 1</title>
  <path d="m230.492996,418.53299c2.656998,-2.213989 6.641998,-5.313995 11.955002,-4.871002c5.313004,0.443024 17.266998,1.328003 21.695007,0.443024c4.427002,-0.886017 7.968994,0.442993 9.296997,-3.098999c1.32901,-3.542023 1.770996,-15.054016 5.312988,-19.481018c3.542023,-4.428009 13.28302,-9.298004 14.611023,-13.725983c1.328979,-4.427002 1.770996,-6.197998 0,-10.626007c-1.771027,-4.427002 -5.756012,-8.412018 -11.511017,-11.069c-5.756012,-2.656006 -11.069,-4.427002 -11.069,-4.427002c0,0 -11.511993,10.625977 -11.953979,13.281982c-0.443024,2.657013 0.884979,5.313019 -1.770996,6.642029c-2.657028,1.328003 -7.085022,-2.657013 -7.970016,-9.740997c-0.886002,-7.084015 2.213989,-15.496002 1.770996,-20.367035c-0.442993,-4.869995 -3.542007,-9.296997 -0.886002,-14.167969c2.656998,-4.869995 8.856018,-12.397034 13.726013,-15.939026c4.869995,-3.541992 13.281982,-3.984985 14.610992,-8.411987c1.328003,-4.427979 -8.412994,-21.252014 -8.412994,-25.237c0,-3.984985 1.328979,-11.511993 -1.770996,-17.709991c-3.098999,-6.199005 -6.641022,-19.481415 -19.924011,-27.893707c-13.281998,-8.412292 -22.580002,-11.9543 -24.794006,-18.152802c-2.213989,-6.198593 -0.442001,-6.198593 2.214005,-7.969589c2.656998,-1.771011 -7.084,-11.954407 -10.182999,-21.694901c-3.100006,-9.740601 -8.41301,-29.221802 -6.199005,-30.992813c2.214005,-1.770981 8.854996,0 10.182999,3.542007c1.32901,3.542099 6.641998,25.237 6.641998,25.237c0,0 -1.327988,-16.381897 0.88501,-21.252197c2.213989,-4.8703 4.871002,-9.74054 7.526993,-8.412308c2.656998,1.328308 1.328003,30.107193 1.328003,30.107193c0,0 2.656998,-6.641296 4.427994,-10.625992c1.771011,-3.984802 3.098999,-7.526794 5.313004,-5.313095c2.214005,2.213791 0.443008,23.466003 0.443008,23.466003c0,0 3.541992,-5.31311 6.197998,-6.641312c2.656998,-1.328293 3.985001,-2.213791 5.755997,0.885513c1.770996,3.099197 1.328003,7.083984 1.328003,7.083984c0,0 1.32901,-4.42749 4.428009,-4.42749c3.098999,0 7.083984,1.328293 5.755981,4.8703c-1.328979,3.541992 11.95401,0.442688 11.067993,6.641296c-0.884979,6.198502 0,11.9543 3.542023,11.9543c3.541992,0 5.755981,4.8703 12.839996,3.099289c4.428009,2.656509 -2.213013,19.038406 0.885986,16.824615c3.098999,-2.213806 10.183014,-3.984802 12.839996,0.885498c2.656006,4.8703 -3.541992,10.626099 0,15.053192c3.542023,4.428009 0,8.412994 5.313019,11.955017c5.312988,3.541992 5.755981,0.884979 7.083984,8.85498c1.328003,7.969025 1.328003,11.511017 3.542023,14.610992c2.213989,3.098999 4.869995,5.313019 4.426971,11.95401c-0.441986,6.641022 -4.426971,12.839996 0.886017,11.95401c5.312988,-0.88501 7.527008,-6.197998 11.510986,-8.411987c3.985016,-2.21402 4.871002,-2.656006 10.184021,-6.641022c5.312988,-3.985016 6.197998,-9.298004 9.298004,-10.626007c3.098999,-1.328979 5.754974,-0.885986 10.182983,-2.656982c4.427002,-1.770996 8.855011,-5.756012 11.069,-7.527008c2.213013,-1.770996 2.213013,-2.656006 6.197998,-6.197998c3.985016,-3.541992 7.970001,-5.756012 10.626007,-11.511993c2.656982,-5.756012 2.213989,-6.197998 5.312988,-14.610596c3.100006,-8.412308 2.21402,-11.068909 3.985016,-14.610916c1.770996,-3.541992 1.770996,-6.641296 4.869995,-9.740585c3.100006,-3.099213 5.756012,-6.641312 6.199005,-3.542007c0.442993,3.099289 0.442993,7.526794 0.442993,10.183304c0,2.656586 3.984985,-3.984711 7.527008,-10.626007c3.541992,-6.641403 1.770996,-7.526901 3.098999,-13.2827c1.328003,-5.755692 0,-9.740494 0.442993,-16.38179c0.441986,-6.641312 1.328003,-7.084106 1.770996,-16.824707c0.442017,-9.740509 1.229004,-11.376221 1.229004,-18.460266c0,-7.084061 -0.256989,-9.949478 -0.343994,-15.188934c1.536987,-4.021606 3.259979,-5.251297 4.427979,-4.8703c1.438019,0.380997 3.370026,0.405998 4.526001,5.755798c0.88501,5.755783 1.684021,10.048004 2.558014,20.809402c-0.885986,10.626099 -1.32901,19.923904 0.441986,22.580399c1.771027,2.656494 3.100006,2.213806 4.428009,-0.885498c1.328003,-3.099197 1.328003,-4.427505 3.098999,-9.740601c1.770996,-5.313004 1.660004,-8.794601 2.570007,-16.209717c-0.442993,-11.068848 0.087006,-16.111282 0.529999,-24.52359c0.441986,-8.412292 -0.049011,-8.657997 0.88501,-13.725296c0.798981,-4.7967 1.917999,-5.939697 5.755981,-5.313095c2.21402,2.656601 2.656006,9.297897 3.542023,15.053696c0.884979,5.755798 0.884979,5.313004 1.327972,15.939072c0.443024,10.626083 0.062012,14.868362 -0.823975,18.410324c-0.209015,3.947998 -0.995026,7.871109 -0.503998,9.483109c2.655975,-1.770996 2.655975,-4.8703 5.312988,-11.068802c2.656006,-6.198547 4.869995,-11.511581 5.756012,-18.595642c0.884979,-7.084061 3.246979,-9.678864 4.759979,-17.476257c3.541992,-7.526802 4.317017,-9.346405 6.751007,-9.531708c2.570007,1.844604 3.787994,3.50531 3.541992,9.297806c-1.328003,6.198601 -1.328003,9.297897 -3.541992,15.496399c-2.213013,6.198547 -1.770996,8.855057 -4.869995,15.496353c-1.881012,5.829376 -2.114014,7.80925 -3.098999,9.740555c4.427002,0.442795 4.365997,-1.316406 7.083984,-4.427505c4.47702,-8.524017 2.779999,-6.728027 4.427002,-9.297821c2.460022,-5.14093 4.563019,-7.034103 6.641998,-6.198547c2.213013,3.542023 3.098999,4.427536 1.328003,8.412323c-1.770996,3.984772 -0.442993,1.328247 -3.098999,7.084045c-2.656982,5.755798 -5.312988,7.969589 -1.770996,7.526794c3.541992,-0.442703 3.984009,0 6.197998,-3.541992c2.213989,-3.542038 0,-3.984802 4.869995,-6.198563c4.870972,-2.213776 7.969971,-6.198547 9.297974,-3.099289c1.329041,3.099289 1.771057,2.656525 -1.328003,7.084045c-3.098999,4.427505 -6.198975,5.755798 -4.869965,7.969604c1.327972,2.213699 4.869965,2.656494 7.527008,2.656494c2.656006,0 3.098999,0.442703 1.770996,4.8703c-1.328979,4.427505 -1.770996,4.427505 -2.213989,6.641312c-0.443054,2.213791 1.770996,3.984787 1.770996,3.984787c0,0 3.984985,-2.656601 0.88501,3.984695c-3.09906,6.641312 -4.870056,4.870316 -6.641052,7.969604c-1.770996,3.099304 -3.541962,6.198608 -0.885986,6.198608c2.656982,0 5.314026,-0.442795 4.871033,1.770996c-0.443054,2.213699 -4.42804,4.42749 -2.21405,5.755798c2.21405,1.328201 3.985046,-0.442795 5.756042,1.328201c1.770996,1.771011 0,4.8703 0,7.084091c0,2.213715 -0.442993,3.984818 0.442993,6.198517c0.88501,2.213791 2.656006,4.427582 1.328003,6.641296c-1.328003,2.213806 0.442993,2.656601 -3.098999,4.8703c-3.54303,2.213791 -5.756042,1.770996 -5.756042,3.984787c0,2.213806 -0.442993,1.771011 1.770996,3.542007c2.21405,1.770996 4.870056,0.44281 3.09906,4.427902c-1.771057,3.983994 -1.328003,3.542007 -2.21405,7.084c-0.88501,3.541992 0.442993,1.770996 -3.541992,10.182983c-3.984985,8.412018 -7.968964,14.611023 -11.953979,16.825012c-3.984985,2.213013 -3.098999,7.083984 -0.442993,7.968994c2.657013,0.886017 3.098999,4.871002 0.442993,10.626007c-2.656982,5.756012 -5.755981,13.28299 -6.640991,17.268005c-0.886017,3.984009 -1.770996,4.427002 -6.199005,9.298004c-4.427002,4.869995 -7.970001,9.296997 -11.95401,10.625977c-3.984985,1.328003 -4.427979,5.755005 -7.083984,7.968994c-2.657013,2.21402 -3.541992,3.542023 -9.298004,3.542023c-5.756012,0 -5.756012,-1.328003 -11.511993,0.442993c-5.756012,1.771027 -8.412018,3.542023 -8.855011,6.198029c-0.442993,2.656982 -2.213989,3.984985 -5.755981,3.099976c-3.542023,-0.885986 -0.88501,1.770996 -5.313019,3.541992c-4.427002,1.770996 -3.098999,3.985016 -8.411987,3.541992c-5.313019,-0.442963 -7.970001,-4.427979 -9.298004,0c-1.328003,4.427002 -1.770996,7.969025 -7.527008,3.985016c-5.755005,-3.985016 -8.85498,-14.610992 -11.95401,-3.541992c-3.098999,11.067993 -3.098999,13.725006 0.443024,16.824005c3.541992,3.098999 4.427002,5.755981 12.397003,8.85498c7.968994,3.100006 7.968994,6.641998 13.724976,8.855011c5.756012,2.213989 6.199005,3.100006 15.054016,7.527008c8.855011,4.427979 11.069,5.755981 16.381989,8.85498c5.313019,3.098999 6.641022,6.199005 7.968994,9.298004c1.32901,3.098999 7.084015,6.640991 4.871002,11.069c-2.213989,4.427002 -6.641998,1.770996 -6.641998,3.985016c0,2.212982 0.886017,3.983978 -0.884979,8.411987c-1.770996,4.427002 -1.328003,6.199005 -7.527008,7.970001c-6.199005,1.770996 -9.740997,2.656006 -12.839996,1.328003c-3.098999,-1.328003 -3.985016,3.984985 -7.084015,2.656006c-3.098999,-1.328003 -4.427002,-5.313019 -6.640991,-3.098999c-2.213989,2.213989 1.770996,3.541992 -3.541992,4.869995c-5.313019,1.32901 -5.756012,-2.213013 -6.199005,0.885986c-0.442993,3.098999 1.328003,6.197998 -4.427002,3.098999c-5.756012,-3.098999 -3.985016,-9.298004 -8.412994,-4.869995c-4.427002,4.427002 -2.213013,9.73999 -10.183014,5.313019c-7.970001,-4.428009 -5.312988,-4.870026 -11.511993,-4.428009c-6.197998,0.442993 -6.197998,0.885986 -8.411987,-3.984009c-2.21402,-4.871002 2.213989,-3.541992 -7.527008,-3.984985c-9.73999,-0.443024 -4.869995,5.755981 -11.069,-2.657013c-6.197998,-8.411987 -7.526001,-16.824005 -10.183014,-7.527008c-2.655975,9.298004 0,11.512024 -3.984985,14.169006c-3.984009,2.656006 -24.351013,1.770996 -24.351013,1.770996c0,0 -0.442993,10.183014 -2.213989,11.95401c-1.770996,1.770996 -6.197998,-1.770996 -10.183014,1.770996c-3.984985,3.541992 -1.328003,5.756012 -4.869995,8.855011c-3.541992,3.098999 -10.626984,3.541992 -10.626984,3.541992c0,0 4.871002,-3.985016 6.199005,-7.527008c1.327972,-3.541992 3.098999,-9.73999 3.098999,-9.73999c0,0 -7.084015,2.656006 -10.183014,3.098999c-3.098999,0.442993 -7.970001,-0.442993 -7.970001,-0.442993l1.32901,10.182983c0,0 -8.412994,0 -8.412994,-3.541992c0,-3.541992 2.656982,-13.282013 4.870972,-14.609985c2.213013,-1.32901 5.313019,-0.886017 5.313019,-0.886017c0,0 -0.886017,-4.427002 1.328003,-5.312988c2.213989,-0.88501 3.541992,0 7.083984,0c3.542023,0 19.481018,-4.869995 19.481018,-4.869995c0,0 -0.443024,-11.512024 1.328003,-16.382019c1.770996,-4.869995 10.18399,-18.596008 6.198975,-20.809998c-3.984985,-2.213013 -7.083984,-0.441986 -9.297974,1.770996c-2.21402,2.21402 -6.198029,8.856018 -14.611023,10.627014c-8.411987,1.770996 -15.052979,2.656006 -15.052979,2.656006c0,0 -1.771027,0.885986 -1.771027,4.427979c0,3.541992 3.098999,7.084015 -1.328979,11.511017c-4.427002,4.427979 -7.968994,8.412994 -12.838989,6.199005c-4.871017,-2.21402 -5.756012,-4.871002 -5.756012,-4.871002c0,0 3.541992,2.213989 9.298004,0.885986c5.755005,-1.328003 3.541992,-12.397003 3.098999,-14.610992c-0.442993,-2.21402 -4.869995,-4.427002 -7.527008,-2.21402c-2.656006,2.21402 -6.199005,7.970001 -3.985001,10.184021c2.214005,2.212982 -6.197998,-4.871002 -5.755997,-7.970001c0.442993,-3.098999 1.770996,-5.313019 1.770996,-5.313019c0,0 -5.755005,0 -9.296997,-0.442993c-3.542007,-0.441986 -6.199005,-2.212982 -6.199005,0.442993c0,2.657013 1.770996,14.611023 -2.213989,7.084015c-3.984009,-7.527008 -5.755005,-9.298004 -1.771011,-13.282013z" fill="#ff0000" id="path10416"/>
 </g>
</svg>