<?xml version="1.0"?><svg width="80" height="80" xmlns="http://www.w3.org/2000/svg">
 <title>red recycle</title>

 <g>
  <title>Layer 1</title>
  <g id="layer1">
   <g transform="matrix(0.968751, 0, 0, 0.98751, 1.25011, -0.250791)" id="g3535">
    <path fill="#ff0000" fill-rule="evenodd" stroke-width="0.25000000pt" id="path2742" d="m55.994587,40.318535l17.137447,-10.261581l7.678474,14.834682c1.854706,8.105148 -8.309074,11.079529 -16.469765,10.596199l-8.346157,-15.1693z"/>
    <path fill="#ff0000" fill-rule="evenodd" stroke-width="0.25000000pt" id="path2743" d="m52.099716,50.914734l-9.013847,15.950066l9.013847,16.173141l0.222561,-6.469254l8.234879,0c3.00462,0.260246 6.899494,-1.710274 8.346165,-4.573097l10.5718,-19.407764c-3.486847,3.45771 -7.970421,4.35001 -13.131294,4.35001l-13.910259,0l-0.333851,-6.023102z"/>
    <path fill="#ff0000" fill-rule="evenodd" stroke-width="0.25000000pt" id="path2751" d="m31.960625,31.249794l-17.269318,-10.03701l9.21307,-13.92932c6.169769,-5.55944 13.697639,1.90353 17.237122,9.289491l-9.180874,14.67684z"/>
    <path fill="#ff0000" fill-rule="evenodd" stroke-width="0.25000000pt" id="path2752" d="m43.094067,29.519695l18.288242,0.157059l9.732422,-15.74921l-5.751076,2.945049l-3.997097,-7.216359c-1.23138,-2.75932 -4.840759,-5.216 -8.040161,-5.09417l-22.060551,0.156c4.70858,1.37726 7.663189,4.87318 10.168209,9.39575l6.751842,12.189791l-5.091831,3.216091z"/>
    <path fill="#ff0000" fill-rule="evenodd" stroke-width="0.25000000pt" id="path2753" d="m1.476267,30.418816l5.350799,4.101238l-5.036049,9.464382c-2.51803,4.364128 1.80775,8.615547 4.56392,10.095348c2.713281,1.456779 6.924581,1.629982 10.85899,1.5774l7.081951,-11.357269l5.350809,2.839321l-9.285219,-16.878162l-18.8852,0.157742z"/>
    <path fill="#ff0000" fill-rule="evenodd" stroke-width="0.25000000pt" id="path2754" d="m2.263147,52.344654l11.4885,20.821644c2.30819,2.891907 6.66229,3.575439 11.173751,3.470284l12.117998,0l0,-19.717476l-22.976999,-0.157742c-3.567209,0.21032 -8.23605,-0.525799 -11.80325,-4.41671z"/>
   </g>
  </g>
 </g>
</svg>