<?xml version="1.0"?><svg width="640" height="480" xmlns="http://www.w3.org/2000/svg">
 <g>
  <title>Layer 1</title>
  <g id="layer1">
   <path d="m579.936951,403.621094c-10.956543,26.133606 -97.571777,-55.220886 -125.427124,-38.360168c-27.855347,16.860718 58.079895,163.793396 27.162476,173.177917c-30.91748,9.384521 -69.616089,-101.580383 -104.838745,-101.83429c-35.222595,-0.253906 -12.68634,114.682068 -48.387421,111.764465c-35.70108,-2.917725 -34.67569,-133.436218 -68.875305,-147.427917c-34.199585,-13.991638 -107.043411,82.541626 -140.618912,65.477539c-33.5755,-17.064087 60.604233,-107.202209 30.111664,-131.200867c-30.492554,-23.998596 -108.407822,48.213196 -133.315273,21.825012c-24.90744,-26.388184 72.163326,-42.032227 60.315899,-71.420715c-11.847412,-29.388519 -145.431999,-61.838715 -145.589012,-91.672882c-0.157021,-29.834198 127.665321,14.946075 134.05603,-14.174255c6.390694,-29.120331 -99.688637,-109.99762 -82.764507,-133.447601c16.92413,-23.450031 99.64069,90.425018 125.787281,72.977478c26.146591,-17.447571 -81.560612,-131.98811 -53.017502,-146.4184c28.543114,-14.43029 132.781128,120.117039 170.351563,117.729313c37.570465,-2.387756 5.66217,-150.652302 44.163055,-142.407284c38.500916,8.24501 38.552917,145.68771 74.454315,155.874294c35.901367,10.186584 35.435089,-122.196423 71.901428,-105.896283c36.466309,16.30012 -13.612,99.923932 12.477539,126.334241c26.089478,26.410309 98.482544,-17.667084 122.162537,7.518188c23.679932,25.185272 -70.858704,51.130341 -56.826416,80.569824c14.032349,29.439484 137.984192,49.524811 138.368103,78.007813c0.383911,28.483032 -94.363403,15.628906 -95.278625,44.908264c-0.915222,29.279358 54.583435,41.962769 43.626953,68.096313z" id="path1291" fill="#ff0000" fill-rule="evenodd" stroke-miterlimit="4" stroke-dashoffset="0" marker-start="none" marker-mid="none" marker-end="none"/>
  </g>
 </g>
</svg>