<?xml version="1.0"?><svg width="218" height="270" xmlns="http://www.w3.org/2000/svg">
 <title>redx</title>

 <g>
  <title>Layer 1</title>
  <path d="m150.21698,5.5q3.160385,0 22.754715,3.012817l19.594345,3.012825l-4.74057,6.929489q-4.740555,6.929482 -18.962265,30.128197q-14.221695,23.198723 -17.698105,28.92308q-3.47641,5.724358 -17.38208,28.621788q-13.90564,22.897438 -13.90564,24.705132l0,1.807693l21.80658,18.378204q21.80661,18.378204 27.179245,22.897446q5.37265,4.519226 19.278305,20.185898q13.90567,15.666656 17.38208,27.115372l3.47641,11.44873l-6.320755,-2.711548q-6.320755,-2.711533 -23.070755,-12.653839q-16.75,-9.942307 -24.65094,-15.064102q-7.90094,-5.121796 -13.905655,-9.641037q-6.004715,-4.519226 -7.584915,-6.929474l-1.580185,-2.410263l-5.688675,-2.410263l-5.68869,-2.410248l-1.89621,-2.711548q-1.89624,-2.711533 -8.21698,-6.628204l-6.32077,-3.916656l-2.84433,4.217941q-2.84436,4.217957 -4.74057,9.038467l-1.89624,4.820511l-5.05661,4.217941q-5.05658,4.217957 -7.90094,8.134628q-2.84433,3.916656 -10.11319,13.256409q-7.26889,9.339737 -13.90567,18.07692q-6.63678,8.737183 -14.53772,16.269226q-7.90094,7.532059 -15.80188,12.653854q-7.90097,5.121796 -13.58963,6.628204l-5.68869,1.506409l3.47641,-6.025635q3.47641,-6.02565 8.53302,-13.256424q5.05661,-7.230759 13.90567,-22.89743q8.84906,-15.666672 25.9151,-45.192307q17.06601,-29.525635 17.06601,-31.935898l0,-2.410263l-11.06131,-8.134613q-11.06131,-8.134613 -27.81131,-18.07692l-16.75,-9.942322l1.89621,-3.615379q1.89624,-3.615372 11.06134,-14.76281l9.1651,-11.147438l3.792419,1.807686q3.79248,1.807701 17.698151,12.653854q13.90564,10.846146 20.542419,15.967949q6.63681,5.121788 8.21698,5.423058l1.5802,0.3013l2.84436,-5.121796q2.84433,-5.121803 7.90094,-15.365395q5.05661,-10.243576 17.06604,-36.756397q12.00943,-26.512821 17.698105,-37.961544q5.688675,-11.448715 6.004715,-11.75l0.31604,-0.301277l3.16037,0z" id="path2" stroke-width="0px" stroke="#000000" fill-rule="evenodd" fill="#ff0000"/>
 </g>
</svg>